<?xml version="1.0" standalone="no"?><!DOCTYPE svg PUBLIC "-//W3C//DTD SVG 1.1//EN" "http://www.w3.org/Graphics/SVG/1.1/DTD/svg11.dtd"><svg t="1723638652904" class="icon" viewBox="0 0 1024 1024" version="1.1" xmlns="http://www.w3.org/2000/svg" p-id="1028" xmlns:xlink="http://www.w3.org/1999/xlink" width="200" height="200"><path d="M796.845 763.61c0 15.832-12.824 28.667-28.645 28.667H250.654c-15.821 0-28.647-12.835-28.647-28.667V243.755c0-15.834 12.826-28.669 28.647-28.669H768.2c15.82 0 28.645 12.835 28.645 28.669V763.61z" fill="#D1D9E0" p-id="1029"></path><path d="M171.771 462.876c-6.627 0-12-5.373-12-12V211.39c0-31.82 26.305-57.708 58.639-57.708h582.034c32.332 0 58.637 26.326 58.637 58.687v236.973c0 6.627-5.373 12-12 12-6.628 0-12-5.373-12-12V212.368c0-19.126-15.538-34.687-34.637-34.687H218.41c-18.776 0-34.639 15.437-34.639 33.708v239.486c0 6.628-5.372 12.001-12 12.001zM800.444 853.682H218.41c-32.333 0-58.639-26.326-58.639-58.685V609.933c0-6.627 5.373-12 12-12s12 5.373 12 12v185.064c0 19.125 15.539 34.685 34.639 34.685h582.034c19.099 0 34.637-15.56 34.637-34.685V611.479c0-6.627 5.372-12 12-12 6.627 0 12 5.373 12 12v183.518c0 32.358-26.305 58.685-58.637 58.685z" fill="#020202" p-id="1030"></path><path d="M392.036 460.994h-81.743c-11.625 0-21.082-9.547-21.082-21.282V306.055c0-11.734 9.458-21.281 21.082-21.281h130.788c11.625 0 21.082 9.547 21.082 21.281v133.657c0 6.627-5.373 12-12 12s-12-5.373-12-12V308.773H313.211v128.221h78.825c6.627 0 12 5.373 12 12s-5.372 12-12 12zM441.081 725.525H310.293c-11.625 0-21.082-9.547-21.082-21.282V570.586c0-11.735 9.458-21.282 21.082-21.282h81.743c6.627 0 12 5.373 12 12s-5.373 12-12 12h-78.825v128.222h124.952v-130.94c0-6.627 5.373-12 12-12s12 5.373 12 12v133.657c0 11.736-9.457 21.282-21.082 21.282zM708.56 460.994h-82.65c-6.627 0-12-5.373-12-12s5.373-12 12-12h79.732V308.773H580.688v130.938c0 6.627-5.373 12-12 12s-12-5.373-12-12V306.055c0-11.734 9.458-21.281 21.084-21.281H708.56c11.625 0 21.082 9.547 21.082 21.281v133.657c0 11.735-9.457 21.282-21.082 21.282zM508.291 459.138c-6.627 0-12-5.373-12-12V298.63c0-6.627 5.373-12 12-12s12 5.373 12 12v148.508c0 6.627-5.373 12-12 12z" fill="#020202" p-id="1031"></path><path d="M506.021 600.222c-6.627 0-12-5.373-12-12v-70.607H302.573c-6.627 0-12-5.373-12-12s5.373-12 12-12H506.02c6.627 0 12 5.373 12 12v82.607c0.001 6.627-5.372 12-11.999 12zM574.138 723.669h-69.025c-6.627 0-12-5.373-12-12v-76.111c0-6.627 5.373-12 12-12s12 5.373 12 12v64.111h45.025V555.734c0-6.627 5.373-12 12-12s12 5.373 12 12v155.935c0 6.627-5.373 12-12 12zM645.89 603.935c-6.627 0-12-5.373-12-12V514.83h-62.475c-6.627 0-12-5.373-12-12s5.373-12 12-12h74.475c6.627 0 12 5.373 12 12v89.105c0 6.627-5.373 12-12 12zM712.192 723.669h-67.211c-6.627 0-12-5.373-12-12v-75.183c0-6.627 5.373-12 12-12s12 5.373 12 12v63.183h55.211c6.627 0 12 5.373 12 12s-5.373 12-12 12zM717.642 671.69c-6.627 0-12-5.373-12-12V502.829c0-6.627 5.373-12 12-12s12 5.373 12 12V659.69c0 6.627-5.373 12-12 12z" fill="#020202" p-id="1032"></path><path d="M405.563 398.189a3.912 3.912 0 0 1-3.91 3.913h-54.742a3.912 3.912 0 0 1-3.91-3.913v-54.784a3.912 3.912 0 0 1 3.91-3.914h54.742a3.912 3.912 0 0 1 3.91 3.914v54.784z" fill="#FCFFB6" p-id="1033"></path><path d="M401.653 412.103h-54.742c-7.67 0-13.91-6.241-13.91-13.913v-54.784c0-7.672 6.24-13.914 13.91-13.914h54.742c7.67 0 13.91 6.242 13.91 13.914v54.784c0 7.671-6.24 13.913-13.91 13.913z m-48.652-20h42.562v-42.611h-42.562v42.611z" fill="" p-id="1034"></path><path d="M673.897 398.189a3.911 3.911 0 0 1-3.91 3.913h-54.742a3.911 3.911 0 0 1-3.91-3.913v-54.784a3.911 3.911 0 0 1 3.91-3.914h54.742c2.16 0 3.91 1.752 3.91 3.914v54.784z" fill="#FCFFB6" p-id="1035"></path><path d="M669.987 412.103h-54.742c-7.67 0-13.91-6.241-13.91-13.913v-54.784c0-7.672 6.24-13.914 13.91-13.914h54.742c7.67 0 13.91 6.242 13.91 13.914v54.784c0 7.671-6.24 13.913-13.91 13.913z m-48.652-20h42.562v-42.611h-42.562v42.611z" fill="" p-id="1036"></path><path d="M406.563 664.774a3.912 3.912 0 0 1-3.91 3.912h-54.742a3.912 3.912 0 0 1-3.91-3.912V609.99a3.912 3.912 0 0 1 3.91-3.913h54.742a3.912 3.912 0 0 1 3.91 3.913v54.784z" fill="#FCFFB6" p-id="1037"></path><path d="M402.653 678.687h-54.742c-7.67 0-13.91-6.241-13.91-13.912V609.99c0-7.672 6.24-13.913 13.91-13.913h54.742c7.67 0 13.91 6.241 13.91 13.913v54.784c0 7.671-6.24 13.913-13.91 13.913z m-48.652-20h42.562v-42.609h-42.562v42.609z" fill="" p-id="1038"></path><path d="M892.177 531.099c0 23.195-18.805 42-42 42h-679c-23.196 0-42-18.805-42-42 0-23.197 18.804-42 42-42h679c23.195 0 42 18.802 42 42z" fill="#FFFFFF" p-id="1039"></path><path d="M850.177 513.099c9.925 0 18 8.075 18 18s-8.075 18-18 18h-679c-9.925 0-18-8.075-18-18s8.075-18 18-18h679m0-24h-679c-23.196 0-42 18.803-42 42 0 23.195 18.804 42 42 42h679c23.195 0 42-18.805 42-42 0-23.198-18.805-42-42-42z" fill="" p-id="1040"></path></svg>