<?xml version="1.0" standalone="no"?><!DOCTYPE svg PUBLIC "-//W3C//DTD SVG 1.1//EN" "http://www.w3.org/Graphics/SVG/1.1/DTD/svg11.dtd"><svg t="1723641224356" class="icon" viewBox="0 0 1024 1024" version="1.1" xmlns="http://www.w3.org/2000/svg" p-id="4091" xmlns:xlink="http://www.w3.org/1999/xlink" width="200" height="200"><path d="M509.362873 526.377761m-428.081563 0a428.081564 428.081564 0 1 0 856.163127 0 428.081564 428.081564 0 1 0-856.163127 0Z" fill="#E3DEFF" p-id="4092"></path><path d="M680.125873 363.490016l79.005433 0 0 124.125591-79.005433 0 0-124.125591Z" fill="#FFFFFF" p-id="4093"></path><path d="M727.124533 502.137868h-14.991886a46.529034 46.529034 0 0 1-46.456784-46.456784v-60.184294a46.529034 46.529034 0 0 1 46.456784-46.456784h14.991886a46.529034 46.529034 0 0 1 46.456784 46.456784v60.112044A46.529034 46.529034 0 0 1 727.124533 502.137868z m-14.991886-124.125591a17.592888 17.592888 0 0 0-17.556763 17.556763v60.112044a17.592888 17.592888 0 0 0 17.556763 17.556763h14.991886a17.592888 17.592888 0 0 0 17.556762-17.556763v-60.184294a17.592888 17.592888 0 0 0-17.556762-17.556763z" fill="#404951" p-id="4094"></path><path d="M273.863826 384.659282l79.005432 0 0 111.445706-79.005432 0 0-111.445706Z" fill="#FFFFFF" p-id="4095"></path><path d="M322.524236 510.554999H304.172723a44.831158 44.831158 0 0 1-44.758908-44.758908v-50.791787a44.831158 44.831158 0 0 1 44.758908-44.795033h18.351513a44.831158 44.831158 0 0 1 44.795033 44.795033v50.791787a44.831158 44.831158 0 0 1-44.795033 44.758908z m-18.351513-111.445707a15.895012 15.895012 0 0 0-15.858887 15.895012v50.791787a15.895012 15.895012 0 0 0 15.858887 15.858887h18.351513a15.895012 15.895012 0 0 0 15.895012-15.858887v-50.791787a15.931137 15.931137 0 0 0-15.895012-15.895012z" fill="#404951" p-id="4096"></path><path d="M520.742256 587.10393A225.96204 225.96204 0 0 1 694.467509 668.312989l11.054258-61.412544v-207.357652a187.633387 187.633387 0 0 0-187.597263-187.633388 187.633387 187.633387 0 0 0-187.633387 187.633388v210.211529l11.885134 64.699922a225.96204 225.96204 0 0 1 178.566005-87.350314z" fill="#FFFFFF" p-id="4097"></path><path d="M333.759119 708.628519l-18.062513-97.537571v-211.620405a202.083398 202.083398 0 1 1 404.130671 0v208.658152l-16.762012 93.202569-19.83264-23.698018a211.87328 211.87328 0 0 0-329.821491 5.635504z m10.837508-100.283073l6.285755 34.28265a240.809426 240.809426 0 0 1 334.26487-4.985254l5.780004-32.079023v-205.912651a173.183377 173.183377 0 1 0-346.330629 0z" fill="#404951" p-id="4098"></path><path d="M687.206378 670.335991l14.450011-79.475058c-41.54378-49.635786-110.976081-59.750794-180.625132-59.750794-72.575178 0-130.050095 12.679884-171.521626 65.783673l13.51076 73.550554z" fill="#E3DEFF" p-id="4099"></path><path d="M699.272137 684.786002H350.701757l-16.870387-91.757568 4.009877-5.129753c49.021661-62.857546 119.971213-71.346927 182.901009-71.346928 64.049672 0 143.705355 7.225005 191.860016 65.025048l4.335003 5.165879z m-324.511113-28.900022h300.34347l10.837508-60.798419C644.976222 551.231779 576.447047 545.4879 520.742256 545.4879c-77.199182 0-123.04184 16.111762-156.096239 55.27129z" fill="#404951" p-id="4100"></path><path d="M704.835391 497.152614l-183.045509 45.517533-190.234389-40.207154v-113.577083c0-31.717773 19.90489-55.704791 19.904889-55.704791l170.3295 38.075778 169.281874-44.433783s9.934382 24.420518 12.679884 64.519298c2.998377 43.386157 1.083751 105.810202 1.083751 105.810202z" fill="#CBB8FF" p-id="4101"></path><path d="M522.042757 557.481408l-204.937275-43.350031v-125.245467c0-36.522402 22.253016-63.796797 23.228392-65.025048l5.635504-6.791505 175.531504 39.267904 178.16863-46.962534L704.438016 321.512735c0.4335 1.083751 10.837508 27.057645 13.691385 68.998801 3.034502 43.602907 1.192126 104.762577 1.119876 107.255204l-0.36125 10.837508z m-176.037254-66.759049l175.531504 37.100403 169.101249-42.013406c0.397375-19.688139 0.903126-61.990545-1.300501-93.455444a252.152685 252.152685 0 0 0-7.839131-48.08241l-159.455867 41.868906-164.22437-36.739152a79.475058 79.475058 0 0 0-11.812884 39.484654z" fill="#404951" p-id="4102"></path><path d="M361.250265 663.255486l47.974035 157.32449h53.609539s5.635504-55.740916 59.245043-55.740916 55.018415 55.740916 55.018416 55.740916h69.179425l23.264517-162.237494-102.4867-57.800042a105.665702 105.665702 0 0 0-51.767163-13.546885 105.485077 105.485077 0 0 0-55.162915 15.569886z" fill="#FFFFFF" p-id="4103"></path><path d="M658.812108 835.029987h-95.731321l-0.36125-14.088761a59.606294 59.606294 0 0 0-6.213504-22.433641c-6.863755-12.932759-18.062513-19.218514-34.354901-19.218514-40.098779 0-44.722783 41.001905-44.903407 42.735906l-1.300501 13.00501h-77.379807l-54.18754-178.240881 108.37508-66.433924a120.079588 120.079588 0 0 1 121.560714-2.312001l111.120581 62.568546z m-69.143301-28.900022h44.072532l20.12164-140.056727-93.925069-52.814789a91.035067 91.035067 0 0 0-92.263317 1.734001l-89.264941 54.765541 41.579906 136.371974h31.067522c6.791505-24.203768 26.913145-55.740916 71.094052-55.740915 27.31052 0 48.804911 12.716009 60.473295 35.799901a83.087561 83.087561 0 0 1 7.04438 19.941014z" fill="#404951" p-id="4104"></path><path d="M396.688916 732.073661l22.867141 74.634305h31.320398s9.609257-57.800042 74.634305-57.800042c0 0 55.993791 7.225005 63.218796 57.800042h43.964157l21.675016-139.081352s-103.570451-63.218796-100.535948-57.800042c1.264376 2.312002-10.151132 19.363014-23.806393 38.256403a201.902773 201.902773 0 0 1-103.425951 74.598179z" fill="#E3DEFF" p-id="4105"></path><path d="M336.974247 608.959571l43.747407 163.64637-87.458689-42.338531 43.711282-121.307839z" fill="#FFFFFF" p-id="4106"></path><path d="M402.83017 799.33846l-127.593593-61.701545 63.796796-177.012629z m-91.576942-76.404431l47.35991 22.903267-23.661893-88.578565z" fill="#404951" p-id="4107"></path><path d="M706.569393 608.815071l-43.711283 163.64637 87.45869-42.338531-43.747407-121.307839z" fill="#FFFFFF" p-id="4108"></path><path d="M640.749594 799.19396L704.438016 560.515911l63.796797 177.012629z m67.878925-142.079729l-23.661892 88.61469 47.359909-22.939392z" fill="#404951" p-id="4109"></path><path d="M382.527905 704.365766h278.162704v28.900021h-278.162704z" fill="#404951" p-id="4110"></path><path d="M363.562266 320.24836l158.950117 36.125026 148.112608-39.159529s-43.964157-91.504692-155.951739-91.504692c0 0 61.412545 40.929655 34.932901 66.831299s-186.043886 27.707895-186.043887 27.707896zM720.007902 413.559303h24.673393V455.175333a17.881888 17.881888 0 0 1-17.845763 18.062514h-6.82763v-59.606294-0.07225zM518.647005 386.935158l-124.631341 111.987582 54.187539 13.546885 183.33451-156.240739-112.890708 30.706272zM684.822127 361.64764L509.362873 526.377761l11.776759 1.661751 14.45001-3.829253 152.844987-142.693855-3.612502-19.868764zM288.205461 416.738305h27.52727v65.025048H303.450222a15.389261 15.389261 0 0 1-15.389261-15.389261v-49.635787h0.1445z" fill="#E3DEFF" p-id="4111"></path></svg>